<?xml version="1.0" encoding="UTF-8"?>
<svg width="90px" height="24px" viewBox="0 0 90 24" version="1.1" xmlns="http://www.w3.org/2000/svg" xmlns:xlink="http://www.w3.org/1999/xlink">
    <title>Logo</title>
    <g id="Page-1" stroke="none" stroke-width="1" fill="none" fill-rule="evenodd">
        <g id="truuth---splash-for-white-label" transform="translate(-135.000000, -669.000000)" fill-rule="nonzero">
            <g id="Group" transform="translate(135.000000, 641.000000)">
                <g id="Logo" transform="translate(0.000000, 28.000000)">
                    <path d="M17.800875,23.90625 L12.65625,23.90625 L12.65625,11.3104828 C12.65625,5.14112344 17.800875,0 23.9743125,0 L23.9743125,5.14112344 C20.63025,5.14112344 17.800875,7.96875469 17.800875,11.3104828 L17.800875,23.90625 Z" id="Path" fill="#616161"></path>
                    <path d="M11.25,11.5675453 L11.25,6.42640781 L5.11363125,6.42640781 L5.11363125,0 L0,0 L0,12.5957672 C0,18.7651406 5.11363125,23.90625 11.25,23.90625 L11.25,18.7651406 C7.92613125,18.7651406 5.11363125,15.9374531 5.11363125,12.5957672 L5.11363125,11.5675453 L11.25,11.5675453 Z" id="Path" fill="#616161"></path>
                    <path d="M71.71875,11.5675453 L71.71875,6.42640781 L65.5824375,6.42640781 L65.5824375,0 L60.46875,0 L60.46875,12.5957672 C60.46875,18.7651406 65.5824375,23.90625 71.71875,23.90625 L71.71875,18.7651406 C68.3949375,18.7651406 65.5824375,15.9374531 65.5824375,12.5957672 L65.5824375,11.5675453 L71.71875,11.5675453 Z" id="Path" fill="#616161"></path>
                    <path d="M81.5625,6.94051875 C80.4737813,6.94051875 79.6573125,7.19758125 78.5685938,7.45464375 L78.5685938,0 L73.125,0 L73.125,14.9093438 L73.125,23.90625 L78.5685938,23.90625 L78.5685938,14.9093438 C78.5685938,13.3669406 79.9294219,12.0816562 81.5625,12.0816562 C83.1955781,12.0816562 84.5564062,13.3669406 84.5564062,14.9093438 L84.5564062,23.90625 L90,23.90625 L90,14.9093438 C90,10.5393094 86.1894844,6.94051875 81.5625,6.94051875 Z" id="Path" fill="#616161"></path>
                    <path d="M53.4052969,7.0032375 L53.4052969,15.9165 C53.4052969,17.4443906 52.0498125,18.71775 50.4233438,18.71775 C48.7967344,18.71775 47.44125,17.4443906 47.44125,15.9165 L47.44125,7.0032375 L42.0194531,7.0032375 L42.0194531,15.9165 C42.0194531,20.2457813 45.8147813,23.8110469 50.4233438,23.8110469 C55.0319063,23.8110469 58.8272344,20.2457813 58.8272344,15.9165 L58.8272344,7.0032375 L53.4052969,7.0032375 Z" id="Path" fill="#CB5DF1"></path>
                    <path d="M35.1968906,7.0032375 L35.1968906,15.9165 C35.1968906,17.4443906 33.8414062,18.71775 32.2149375,18.71775 C30.5883281,18.71775 29.2328437,17.4443906 29.2328437,15.9165 L29.2328437,7.0032375 L23.8110469,7.0032375 L23.8110469,15.9165 C23.8110469,20.2457813 27.606375,23.8110469 32.2149375,23.8110469 C36.8235,23.8110469 40.6188281,20.2457813 40.6188281,15.9165 L40.6188281,7.0032375 L35.1968906,7.0032375 Z" id="Path" fill="#B417EB"></path>
                </g>
            </g>
        </g>
    </g>
</svg>