<svg xmlns="http://www.w3.org/2000/svg" width="182" height="183" viewBox="0 0 182 183">
    <g fill="none" fill-rule="evenodd">
        <path fill="#6038CD" opacity="0.2" d="M160.095 164.952c0 3.288-30.914 5.953-69.047 5.953-38.134 0-69.048-2.665-69.048-5.953C22 161.664 52.914 159 91.048 159c38.133 0 69.047 2.664 69.047 5.952" transform="translate(0 1)"/>
        <g>
            <path fill="#6038CD" opacity="0.2" d="M144.49 146.923c-1.543 1.18-2.593 2.117-2.534 4.077 2.935-.196 36.403-.145 36.306-.335-5.402-10.509-14.015-23.858-18.94-32.563-6.89-12.181-15.63-25.544-22.858-37.541-1.498-2.485-2.852-5.327-4.82-8.561-3.984 6.88-2.243 14.838-.042 18.49 7.319 12.16 14.44 22.71 18.216 36.53 1.92 7.021.516 15.436-5.329 19.903z" transform="translate(0 1) translate(2)"/>
            <path stroke="#6038CD" stroke-linecap="round" stroke-linejoin="round" stroke-width="2" d="M.906 149.486L89.551 1.448c.283-.474.897-.628 1.371-.345.144.087.264.208.35.352l86.845 148.039c.279.476.12 1.09-.357 1.369-.153.09-.328.137-.506.137H1.764c-.552 0-1-.448-1-1 0-.18.05-.358.142-.514z" transform="translate(0 1) translate(2)"/>
            <path stroke="#6038CD" stroke-width="2" d="M90 62c-5.503 0-10 4.56-10 10.141 0 .143.017.284.052.423l8.333 32.166c.19.747.854 1.27 1.615 1.27s1.426-.523 1.615-1.27l8.333-32.166c.035-.139.052-.28.052-.423C100 66.561 95.503 62 90 62z" transform="translate(0 1) translate(2)"/>
            <path fill="#6038CD" d="M90 118c-3.302 0-6 2.698-6 6s2.698 6 6 6 6-2.698 6-6-2.698-6-6-6z" transform="translate(0 1) translate(2)"/>
        </g>
    </g>
</svg>
